<?xml version="1.0" encoding="UTF-8" standalone="no"?>
<!-- Created with Inkscape (http://www.inkscape.org/) -->

<svg
   version="1.1"
   id="svg3384"
   xml:space="preserve"
   width="682.66669"
   height="682.66669"
   viewBox="0 0 682.66669 682.66669"
   xmlns="http://www.w3.org/2000/svg"
   xmlns:svg="http://www.w3.org/2000/svg"><defs
     id="defs3388"><clipPath
       clipPathUnits="userSpaceOnUse"
       id="clipPath3398"><path
         d="M 0,512 H 512 V 0 H 0 Z"
         id="path3396" /></clipPath></defs><g
     id="g3390"
     transform="matrix(1.3333333,0,0,-1.3333333,0,682.66667)"><g
       id="g3392"><g
         id="g3394"
         clip-path="url(#clipPath3398)"><g
           id="g3400"
           transform="translate(437,253.5)"><path
             d="m 0,0 v 157.5 c 0,16.569 13.431,30 30,30 16.569,0 30,-13.431 30,-30 v -188 l -90,-148 v -60 h -302 v 60 l -90,148 v 188 c 0,16.569 13.431,30 30,30 16.569,0 30,-13.431 30,-30 V 0"
             style="fill:none;stroke:#000000;stroke-width:30;stroke-linecap:butt;stroke-linejoin:miter;stroke-miterlimit:10;stroke-dasharray:none;stroke-opacity:1"
             id="path3402" /></g><g
           id="g3404"
           transform="translate(256,120.5)"><path
             d="m 0,0 c 0,16.567 -6.678,31.602 -17.533,42.46 l -112.254,112.253 c -11.716,11.716 -30.71,11.716 -42.426,0 -11.716,-11.716 -11.716,-30.71 0,-42.426 L -60.004,0.077"
             style="fill:none;stroke:#000000;stroke-width:30;stroke-linecap:butt;stroke-linejoin:miter;stroke-miterlimit:10;stroke-dasharray:none;stroke-opacity:1"
             id="path3406" /></g><g
           id="g3408"
           transform="translate(315.999,120.5726)"><path
             d="m 0,0 112.214,112.214 c 11.716,11.716 11.716,30.711 0,42.427 -11.716,11.715 -30.71,11.715 -42.426,0 L -42.466,42.387 C -53.321,31.529 -59.999,16.494 -59.999,-0.073 v -105.5"
             style="fill:none;stroke:#000000;stroke-width:30;stroke-linecap:butt;stroke-linejoin:miter;stroke-miterlimit:10;stroke-dasharray:none;stroke-opacity:1"
             id="path3410" /></g><g
           id="g3412"
           transform="translate(366,432)"><path
             d="m 0,0 h -65 v 65 h -90 V 0 h -65 v -90 h 65 v -65 h 90 v 65 H 0 Z"
             style="fill:none;stroke:#000000;stroke-width:30;stroke-linecap:butt;stroke-linejoin:miter;stroke-miterlimit:10;stroke-dasharray:none;stroke-opacity:1"
             id="path3414" /></g></g></g></g></svg>
