<?xml version="1.0" encoding="UTF-8"?>
<svg id="Layer_1" xmlns="http://www.w3.org/2000/svg" xmlns:xlink="http://www.w3.org/1999/xlink" viewBox="0 0 154.8 154.8">
  <defs>
    <filter id="drop-shadow-1" filterUnits="userSpaceOnUse">
      <feOffset dx="1.62" dy="3.79"/>
      <feGaussianBlur result="blur" stdDeviation=".54"/>
      <feFlood flood-color="#1c3a8d" flood-opacity=".7"/>
      <feComposite in2="blur" operator="in"/>
      <feComposite in="SourceGraphic"/>
    </filter>
    <filter id="drop-shadow-2" filterUnits="userSpaceOnUse">
      <feOffset dx="1.62" dy="3.79"/>
      <feGaussianBlur result="blur-2" stdDeviation=".54"/>
      <feFlood flood-color="#1c3a8d" flood-opacity=".7"/>
      <feComposite in2="blur-2" operator="in"/>
      <feComposite in="SourceGraphic"/>
    </filter>
  </defs>
  <circle cx="77.4" cy="77.4" r="76.73" fill="#fff"/>
  <g>
    <g>
      <path d="M40.88,20.91s0,0,0,0c5.51-8.17,12.2-14.52,19.64-18.38,0,0,0,0,0,0-12.22,2.74-23.34,8.4-32.58,16.2h0c4.12.84,8.45,1.57,12.94,2.18Z" fill="#0089ef"/>
      <path d="M42.81,21.17s0,0,0,0c7.02.89,14.43,1.5,22.08,1.82,0,0,0,0,0,0,2.17-10.42,5.03-18.42,8.48-22.21,0,0,0,0,0,0-1.44.07-2.87.19-4.28.35-10.08,2.57-19.15,9.74-26.28,20.05Z" fill="#0089ef"/>
      <path d="M66.53,23.05c3.49.12,7.02.19,10.59.19,4.12,0,8.2-.09,12.21-.25,0,0,0,0,0,0-2.58-12.1-5.93-19.95-9.32-22.26-.87-.03-1.74-.05-2.61-.05-.5,0-1,0-1.49.02-3.41,2.28-6.78,10.16-9.38,22.36,0,0,0,0,0,0Z" fill="#0089ef"/>
      <path d="M90.97,22.92c7.26-.34,14.29-.95,20.97-1.82,0,0,0,0,0,0-7.12-10.27-16.18-17.41-26.23-19.98-1.04-.11-2.09-.2-3.15-.27h0c3.42,3.81,6.25,11.74,8.4,22.07,0,0,0,0,0,0Z" fill="#0089ef"/>
      <path d="M40.65,133.64s0,0,0,0c-4.5.62-8.83,1.35-12.96,2.2h0c9.21,7.85,20.3,13.55,32.5,16.35-7.41-3.94-14.07-10.34-19.54-18.55Z" fill="#0089ef"/>
      <path d="M113.87,20.84s0,0,0,0c4.47-.62,8.76-1.36,12.86-2.21,0,0,0,0,0,0-9.22-7.75-20.3-13.37-32.47-16.1h0c7.42,3.85,14.1,10.17,19.6,18.31Z" fill="#0089ef"/>
      <path d="M64.81,131.54c-7.71.32-15.17.94-22.25,1.84,0,0,0,0,0,0,6.99,10.25,15.89,17.45,25.8,20.21,1.62.19,3.25.33,4.9.42,0,0,0,0,0,0-3.44-3.88-6.29-11.97-8.45-22.47,0,0,0,0,0,0Z" fill="#0089ef"/>
      <path d="M114.11,133.71s0,0,0,0c-5.46,8.18-12.1,14.56-19.49,18.48,12.15-2.79,23.2-8.46,32.39-16.26h0c-4.11-.85-8.41-1.6-12.9-2.22Z" fill="#0089ef"/>
      <path d="M154.12,77.85h-18.17v-1.74h18.15s0,0,0,0c-.37-22.27-10.22-42.23-25.69-56.01-4.28.92-8.79,1.72-13.48,2.38,0,0,0,0,0,0,4.47,7.01,8.09,15.27,10.62,24.39-.61-.1-1.23-.15-1.86-.15-2.55-9.01-6.18-17.13-10.65-23.98-6.91.92-14.19,1.57-21.73,1.93,1.35,6.86,2.4,14.69,3.15,22.99h-1.6c-.78-8.67-1.87-16.37-3.19-22.92-4.13.17-8.33.27-12.58.27-3.69,0-7.35-.07-10.95-.2-1.32,6.59-2.42,14.35-3.19,23.08-.51-.17-1.03-.34-1.55-.49.74-8.18,1.79-15.89,3.11-22.66-7.92-.33-15.58-.98-22.83-1.93-5.72,8.79-10.07,19.67-12.51,31.82-.77.69-1.51,1.41-2.2,2.17,2.33-13.05,6.81-24.78,12.82-34.24,0,0,0,0,0,0-4.71-.66-9.24-1.45-13.54-2.36C10.86,33.98,1.05,53.89.69,76.11h0s18.18,0,18.18,0c0,.03,0,.06,0,.08-.02.56-.03,1.11-.02,1.66H.68c.13,22.42,9.88,42.57,25.33,56.52,4.31-.92,8.85-1.71,13.57-2.38,0,0,0,0,0,0-5.86-9.34-10.24-20.84-12.55-33.62.21.23.41.46.62.68.51.53,1.05,1.04,1.6,1.54,2.43,11.86,6.67,22.5,12.22,31.15,7.3-.96,15.01-1.62,22.99-1.96-1.27-6.56-2.27-13.99-3-21.86.52-.15,1.04-.31,1.55-.49.76,8.39,1.81,15.88,3.08,22.28,3.63-.13,7.31-.2,11.03-.2,4.28,0,8.5.09,12.66.27,1.22-6.13,2.24-13.27,2.99-21.24h1.6c-.73,7.67-1.72,14.9-2.96,21.31,7.59.36,14.93,1.02,21.88,1.95,4.19-6.5,7.63-14.13,10.12-22.56.19,0,.38.03.57.03.43,0,.85-.02,1.27-.07-2.47,8.5-5.89,16.23-10.06,22.86,0,0,0,0,0,0,4.71.67,9.22,1.47,13.51,2.4,15.51-13.95,25.31-34.14,25.44-56.61h0Z" fill="#0089ef"/>
      <path d="M89.41,131.54c-4.04-.17-8.14-.26-12.3-.26-3.59,0-7.15.06-10.66.19,0,0,0,0,0,0,2.57,12.23,5.91,20.2,9.31,22.63.55.01,1.1.02,1.65.02.93,0,1.85-.02,2.77-.06,3.37-2.47,6.68-10.4,9.24-22.53,0,0,0,0,0,0Z" fill="#0089ef"/>
      <path d="M112.19,133.45s0,0,0,0c-6.73-.88-13.82-1.5-21.14-1.84,0,0,0,0,0,0-2.14,10.41-4.97,18.43-8.38,22.33,1.27-.09,2.53-.2,3.78-.35,9.88-2.75,18.76-9.93,25.75-20.14Z" fill="#0089ef"/>
    </g>
    <g>
      <g filter="url(#drop-shadow-1)">
        <g>
          <path d="M106.19,53.89c1.25,0,2.42.49,3.31,1.37.89.89,1.37,2.06,1.37,3.31,0,2.58-2.1,4.68-4.68,4.68h-25.31c-2.78,0-5.04-2.26-5.04-5.04v-4.32h31.44" fill="#fff"/>
          <path d="M105.64,73.15c1.25,0,2.42.49,3.31,1.37.89.89,1.37,2.06,1.37,3.31,0,2.58-2.1,4.68-4.68,4.68h-24.77c-2.78,0-5.04-2.26-5.04-5.04v-4.32h29.81Z" fill="#fff"/>
          <path d="M106.19,92.41c1.25,0,2.42.49,3.31,1.37.89.89,1.37,2.06,1.37,3.31,0,2.58-2.1,4.68-4.68,4.68h-25.31c-2.78,0-5.04-2.26-5.04-5.04v-4.32h31.44" fill="#fff"/>
        </g>
        <path d="M119.83,97.83v-43.81s4.32,0,4.32,0c2.78,0,5.04,2.26,5.04,5.04v38.22c0,2.58-2.1,4.68-4.68,4.68-1.25,0-2.43-.49-3.31-1.37-.88-.88-1.37-2.06-1.37-3.31" fill="#fff"/>
      </g>
      <path d="M66.68,80.97c0-.11,0-.21,0-.22,0-.45-.07-.82-.21-1.14-.57-1.84-2.24-3.19-4.23-3.29-.08,0-.16-.02-.24-.02h-13.86v4.12c0,2.64,2.26,4.8,5.04,4.8h3.98v6.7c-1.79.64-3.73,1-5.75,1-9.38,0-16.91-7.54-16.25-16.61.55-7.65,7.07-13.84,15.1-14.37,2.34-.15,4.59.17,6.64.87,3.43,1.17,7.04-1.22,7.04-4.68v-2.19c-4.06-2.15-8.78-3.29-13.81-3.06-13.28.61-24.02,10.97-24.51,23.61-.54,13.99,11.21,25.49,25.79,25.49,4.55,0,8.82-1.12,12.53-3.09h0c.36-.19.69-.42.99-.68.12-.09.24-.18.35-.28.9-.85,1.39-1.99,1.39-3.2v-13.73s0-.01,0-.02Z" fill="#fff" filter="url(#drop-shadow-2)"/>
    </g>
  </g>
</svg>