<?xml version="1.0" encoding="UTF-8"?>
<svg id="Capa_1" xmlns="http://www.w3.org/2000/svg" viewBox="0 0 505.07 517">
  <path d="M14.96,177.98l49.07-84.98c5.07-8.79,16.41-11.82,25.17-6.75l34.61,19.98c17.97-15.22,38.66-27.3,61.23-35.43V30.92c0-10.15,8.31-18.42,18.43-18.42h98.16c10.12,0,18.42,8.28,18.42,18.42v39.88c22.56,8.14,43.26,20.21,61.23,35.43l34.61-19.98c8.76-5.07,20.1-2.04,25.17,6.75l49.07,84.98c5.07,8.79,2.01,20.13-6.75,25.17l-34.55,19.96c2.04,11.48,3.12,23.3,3.12,35.38s-1.08,23.9-3.12,35.38l34.55,19.96c8.76,5.07,11.82,16.41,6.75,25.17l-49.07,85.01c-5.07,8.76-16.41,11.79-25.17,6.75l-34.61-19.98c-17.97,15.19-38.66,27.3-61.23,35.4v39.91c0,10.12-8.3,18.42-18.42,18.42h-98.16c-10.12,0-18.43-8.3-18.43-18.42v-39.91c-22.56-8.11-43.26-20.21-61.23-35.4l-34.61,19.98c-8.76,5.05-20.1,2.01-25.17-6.75l-49.07-85.01c-5.07-8.76-2.01-20.1,6.75-25.17l34.55-19.96c-2.04-11.48-3.12-23.3-3.12-35.38s1.08-23.9,3.12-35.38l-34.55-19.96c-8.79-5.04-11.82-16.38-6.75-25.17h0Z" fill="none" stroke="#000" stroke-linecap="round" stroke-linejoin="round" stroke-width="25"/>
  <path d="M252.53,103.57c85.58,0,154.94,69.36,154.94,154.91s-69.36,154.94-154.94,154.94-154.91-69.36-154.91-154.94c0-85.55,69.36-154.91,154.91-154.91h0Z" fill="none" stroke="#000" stroke-linecap="round" stroke-linejoin="round" stroke-width="25"/>
  <path d="M266.73,219.34c-17.21,9.86-41.73,35.38-43.37,77.7,37.62,19.45,71.91,10.71,89.01.62,17.18-9.89,41.7-35.4,43.37-77.72-37.64-19.45-71.91-10.69-89.01-.6h0Z" fill="none" stroke="#000" stroke-linecap="round" stroke-linejoin="round" stroke-width="25"/>
  <path d="M223.36,297.04c-15.85.28-29.11-4.28-37.47-9.21-14.49-8.33-35.15-29.82-36.54-65.45,31.69-16.38,60.57-9.01,74.98-.54,6.09,3.51,13.27,9.35,19.67,17.57" fill="none" stroke="#000" stroke-linecap="round" stroke-linejoin="round" stroke-width="25"/>
  <path d="M223.36,297.04c-6.86,32.8-2.24,71.26,28.88,116.16" fill="none" stroke="#000" stroke-linecap="round" stroke-linejoin="round" stroke-width="25"/>
  <line x1="223.36" y1="297.04" x2="289.55" y2="258.49" fill="none" stroke="#000" stroke-linecap="round" stroke-linejoin="round" stroke-width="25"/>
</svg>