<?xml version="1.0" encoding="UTF-8"?>
<svg xmlns="http://www.w3.org/2000/svg" xmlns:xlink="http://www.w3.org/1999/xlink" version="1.1" id="Capa_1" x="0px" y="0px" viewBox="0 0 512 512" style="enable-background:new 0 0 512 512;" xml:space="preserve" width="512" height="512">
<g>
	<path style="fill:none;stroke:#000000;stroke-width:30;stroke-miterlimit:10;" d="M256,456.83&#10;&#9;&#9;c-122.008,0-220.915-98.907-220.915-220.915S133.992,15,256,15s220.915,98.907,220.915,220.915&#10;&#9;&#9;c0,54.372-19.642,104.156-52.218,142.643"/>
	<g>
		<path style="fill:none;stroke:#000000;stroke-width:30;stroke-miterlimit:10;" d="M365.035,376.219&#10;&#9;&#9;&#9;c0,0,40.183-19.636,71.544,11.725c31.361,31.361,11.725,71.544,11.725,71.544s-40.183,19.636-71.544-11.725"/>
		<path style="fill:none;stroke:#000000;stroke-width:30;stroke-miterlimit:10;" d="M264.071,488.929&#10;&#9;&#9;&#9;c0,0,53.426,26.107,95.121-15.589c41.696-41.696,15.589-95.121,15.589-95.121s-53.426-26.107-95.121,15.589&#10;&#9;&#9;&#9;C237.964,435.504,264.071,488.929,264.071,488.929z"/>
		
			<line style="fill:none;stroke:#000000;stroke-width:30;stroke-miterlimit:10;" x1="374.781" y1="378.219" x2="315.196" y2="437.804"/>
	</g>
	<path style="fill:none;stroke:#000000;stroke-width:30;stroke-miterlimit:10;" d="M60.821,339.487&#10;&#9;&#9;c34.999-7.323,61.899-31.104,66.008-66.624c3.624-31.333-7.159-55.746-18.495-81.197c-9.706-21.791-18.672-39.692-18.167-63.542&#10;&#9;&#9;c0.625-29.5,14.75-55.625,37.209-71.835"/>
	<path style="fill:none;stroke:#000000;stroke-width:30;stroke-miterlimit:10;" d="M133.235,417.48&#10;&#9;&#9;c28.093-5.048,53.618-22.927,67.963-47.604c14.015-24.11,16.896-51.112,8.012-77.456c-5.523-16.38-13.221-32.3-15.009-49.493&#10;&#9;&#9;c-1.331-12.798,0.479-23.135,5.966-34.571c5.82-12.131,12.597-23.786,18.081-36.081c9.902-22.2,12.451-46.713,8.05-70.529&#10;&#9;&#9;c-5.148-27.857-19.931-53.84-41.248-72.498"/>
	<path style="fill:none;stroke:#000000;stroke-width:30;stroke-miterlimit:10;" d="M381.796,54.291&#10;&#9;&#9;C362,48.667,342.333,63,335.667,81c-9.299,25.108,4.135,45.828,3.099,68.096c-1.145,24.624-16.666,35.605-26.742,56.843&#10;&#9;&#9;c-6.278,13.233-9.228,28.624-5.04,42.66c10.945,36.681,51.511,45.237,84.183,46.892c49.5,2.508,81.638-16.965,81.638-16.965"/>
</g>















</svg>
